<svg xmlns="http://www.w3.org/2000/svg" xml:space="preserve" fill-rule="evenodd" stroke-linecap="round" stroke-linejoin="round"
  stroke-miterlimit="10" clip-rule="evenodd" viewBox="0 0 120 120">
  <path fill="none" stroke="#fff" stroke-width="6.37"
    d="M78.852 22.457V9.672M60 22.457V9.672M41.148 22.457V9.672M87.427 96.499H32.573a8.265 8.265 0 0 1-8.265-8.265V33.379c0-4.564 3.7-8.265 8.265-8.265h54.854a8.265 8.265 0 0 1 8.265 8.265v54.855c0 4.564-3.7 8.265-8.265 8.265Z" />
  <path fill="#fff" fill-rule="nonzero"
    d="M55.592 52.175c-.773 3.031-1.428 5.464-2.026 7.403l-.918 2.768h6.019l-.947-2.768c-.642-1.997-1.326-4.401-2.128-7.403" />
  <path fill="#fff" fill-rule="nonzero"
    d="M72.642 70.857h-3.891V49.144h3.891v21.713Zm-11.061 0-1.851-5.378h-8.117l-1.777 5.378H45.58l7.578-21.713h4.94l7.753 21.713h-4.27Zm21.182-35.164H37.237a2.35 2.35 0 0 0-2.35 2.351v45.525a2.35 2.35 0 0 0 2.35 2.351h45.526a2.35 2.35 0 0 0 2.35-2.351V38.044a2.35 2.35 0 0 0-2.35-2.351" />
  <path fill="none" stroke="#fff" stroke-width="6.37"
    d="M22.457 41.955H9.672M22.457 60.806H9.672M22.457 79.658H9.672M110.328 41.955H97.543M110.328 60.806H97.543M110.328 79.658H97.543M78.852 110.328V97.543M60 110.328V97.543M41.148 110.328V97.543" />
</svg>