<svg xmlns="http://www.w3.org/2000/svg" xml:space="preserve" style="fill-rule:evenodd;clip-rule:evenodd;stroke-linejoin:round;stroke-miterlimit:2" viewBox="0 0 120 120"><path d="M63.541 88.267h-7.083a2.159 2.159 0 0 1-2.157-2.158v-5.838a9.258 9.258 0 0 1-3.428-8.734c.303-1.964 1.28-3.815 2.748-5.213a9.235 9.235 0 0 1 5.333-2.505 9.3 9.3 0 0 1 7.206 2.296 9.264 9.264 0 0 1 3.081 6.89c0 2.871-1.31 5.52-3.542 7.266v5.838a2.16 2.16 0 0 1-2.158 2.158m-4.925-4.315h2.768v-4.593c0-.888.451-1.701 1.21-2.173a4.907 4.907 0 0 0 2.331-4.181c0-1.399-.6-2.738-1.642-3.675a4.902 4.902 0 0 0-3.854-1.221c-2.157.238-3.963 1.959-4.295 4.092-.313 2.009.556 3.919 2.272 4.985a2.545 2.545 0 0 1 1.21 2.173v4.593ZM74.966 56.171H45.032a2.16 2.16 0 0 1-2.158-2.158V43.29c0-7.381 6.007-13.388 13.387-13.388h7.48c7.376 0 13.382 6.007 13.382 13.388v10.723a2.159 2.159 0 0 1-2.157 2.158m-27.777-4.315h25.619V43.29c0-5-4.067-9.072-9.067-9.072h-7.48c-5.004 0-9.072 4.072-9.072 9.072v8.566Z" style="fill:#fff;fill-rule:nonzero"/><path d="M82.449 56.171a2.159 2.159 0 0 1-2.157-2.158V40.492c0-7.857-5.913-14.255-13.185-14.255H52.892c-7.271 0-13.184 6.398-13.184 14.255v13.521a2.159 2.159 0 0 1-2.157 2.158 2.16 2.16 0 0 1-2.158-2.158V40.492c0-4.93 1.801-9.578 5.074-13.074 3.309-3.547 7.723-5.496 12.425-5.496h14.215c4.703 0 9.117 1.949 12.426 5.496 3.273 3.496 5.074 8.144 5.074 13.074v13.521a2.16 2.16 0 0 1-2.158 2.158" style="fill:#fff;fill-rule:nonzero"/><path d="M84.478 98.078H35.522a7.618 7.618 0 0 1-7.614-7.614V59.469c0-4.196 3.412-7.614 7.614-7.614h48.956c4.196 0 7.614 3.418 7.614 7.614v30.995c0 4.202-3.418 7.614-7.614 7.614M35.522 56.171a3.3 3.3 0 0 0-3.299 3.298v30.995a3.3 3.3 0 0 0 3.299 3.299h48.956a3.303 3.303 0 0 0 3.299-3.299V59.469a3.303 3.303 0 0 0-3.299-3.298H35.522Z" style="fill:#fff;fill-rule:nonzero"/></svg>