<svg xmlns="http://www.w3.org/2000/svg" xml:space="preserve" fill-rule="evenodd" stroke-linecap="round" stroke-linejoin="round"
  stroke-miterlimit="10" clip-rule="evenodd" viewBox="0 0 120 120">
  <path fill="none" stroke="#fff" stroke-width="8.17"
    d="M21.801 44.934s13.093-14.569 38.174-14.569c25.082 0 38.224 14.569 38.224 14.569M32.215 62.099s9.523-10.49 27.767-10.49 27.803 10.49 27.803 10.49" />
  <path fill="#fff" fill-rule="nonzero" d="M63.131 83.623a3.579 3.579 0 1 1-7.157.001 3.579 3.579 0 0 1 7.157-.001" />
  <path fill="none" stroke="#fff" stroke-width="13.03"
    d="M63.131 83.623a3.581 3.581 0 0 0-3.579-3.579 3.581 3.581 0 0 0-3.579 3.579 3.581 3.581 0 0 0 3.579 3.579 3.581 3.581 0 0 0 3.579-3.579Z" />
</svg>